<svg width="124" height="32" viewBox="0 0 124 32" fill="none" xmlns="http://www.w3.org/2000/svg">
<path d="M0.994629 24.334H17.2134V20.1504H6.06885V14.4199H16.3345V10.2363H6.06885V4.51758H17.1665V0.333984H0.994629V24.334Z" fill="#131340"/>
<path d="M25.2788 6.33398H20.1226L25.2788 15.334L19.9351 24.334H25.0913L28.5835 18.1113L32.1343 24.334H37.2319L31.8765 15.334L37.0913 6.33398H31.9702L28.5835 12.627L25.2788 6.33398Z" fill="#131340"/>
<path d="M40.0562 31.084H45.0483V21.4512H45.2007C45.8921 22.9512 47.4038 24.627 50.3101 24.627C54.4116 24.627 57.6108 21.3809 57.6108 15.3574C57.6108 9.16992 54.271 6.09961 50.3218 6.09961C47.3101 6.09961 45.8687 7.89258 45.2007 9.35742H44.978V6.33398H40.0562V31.084ZM44.9429 15.334C44.9429 12.123 46.3022 10.0723 48.728 10.0723C51.2007 10.0723 52.5132 12.2168 52.5132 15.334C52.5132 18.4746 51.1772 20.6543 48.728 20.6543C46.3257 20.6543 44.9429 18.5449 44.9429 15.334Z" fill="#131340"/>
<path d="M69.1421 24.6855C73.5952 24.6855 76.5952 22.5176 77.2983 19.1777L72.6812 18.873C72.1772 20.2441 70.8882 20.959 69.2241 20.959C66.728 20.959 65.146 19.3066 65.146 16.623V16.6113H77.4038V15.2402C77.4038 9.12305 73.7007 6.09961 68.9429 6.09961C63.646 6.09961 60.2124 9.86133 60.2124 15.416C60.2124 21.123 63.5991 24.6855 69.1421 24.6855ZM65.146 13.5176C65.2515 11.4668 66.8101 9.82617 69.0249 9.82617C71.1929 9.82617 72.6929 11.373 72.7046 13.5176H65.146Z" fill="#131340"/>
<path d="M80.6616 24.334H85.6538V14.1504C85.6538 11.9355 87.271 10.4121 89.4741 10.4121C90.1655 10.4121 91.1147 10.5293 91.5835 10.6816V6.25195C91.1382 6.14648 90.5171 6.07617 90.0132 6.07617C87.9976 6.07617 86.3452 7.24805 85.689 9.47461H85.5015V6.33398H80.6616V24.334Z" fill="#131340"/>
<path d="M104.641 6.33398H101.254V2.02148H96.2622V6.33398H93.8013V10.084H96.2622V19.459C96.2388 22.9863 98.6411 24.7324 102.262 24.5801C103.551 24.5332 104.465 24.2754 104.969 24.1113L104.184 20.3965C103.938 20.4434 103.411 20.5605 102.942 20.5605C101.946 20.5605 101.254 20.1855 101.254 18.8027V10.084H104.641V6.33398Z" fill="#131340"/>
<path d="M122.612 11.4668C122.167 8.15039 119.495 6.09961 114.948 6.09961C110.342 6.09961 107.307 8.23242 107.319 11.7012C107.307 14.3965 109.006 16.1426 112.522 16.8457L115.639 17.4668C117.209 17.7832 117.924 18.3574 117.948 19.2598C117.924 20.3262 116.764 21.0879 115.018 21.0879C113.237 21.0879 112.053 20.3262 111.749 18.8613L106.838 19.1191C107.307 22.5645 110.237 24.6855 115.006 24.6855C119.67 24.6855 123.01 22.3066 123.022 18.7559C123.01 16.1543 121.311 14.5957 117.819 13.8809L114.561 13.2246C112.885 12.8613 112.264 12.2871 112.276 11.4199C112.264 10.3418 113.483 9.63867 115.03 9.63867C116.764 9.63867 117.795 10.5879 118.042 11.748L122.612 11.4668Z" fill="#131340"/>
</svg>
