<svg width="24" height="22" viewBox="0 0 24 22" fill="none" xmlns="http://www.w3.org/2000/svg">
<path fill-rule="evenodd" clip-rule="evenodd" d="M22.5625 1.4375C22.778 1.4375 22.9846 1.5231 23.137 1.67548C23.2894 1.82785 23.375 2.03451 23.375 2.25V10.05C23.375 10.5835 23.2699 11.1118 23.0657 11.6047C22.8616 12.0975 22.5623 12.5454 22.1851 12.9226C21.8079 13.2999 21.36 13.5991 20.8671 13.8033C20.3743 14.0074 19.846 14.1125 19.3125 14.1125H3.39886L8.83774 19.5497C8.9903 19.7023 9.07601 19.9092 9.07601 20.125C9.07601 20.3408 8.9903 20.5477 8.83774 20.7003C8.68517 20.8528 8.47825 20.9385 8.26249 20.9385C8.04673 20.9385 7.8398 20.8528 7.68724 20.7003L0.862238 13.8753C0.786572 13.7998 0.72654 13.7101 0.68558 13.6114C0.644619 13.5127 0.623535 13.4069 0.623535 13.3C0.623535 13.1931 0.644619 13.0873 0.68558 12.9886C0.72654 12.8899 0.786572 12.8002 0.862238 12.7248L7.36224 6.22475C7.5148 6.07218 7.72173 5.98647 7.93749 5.98647C8.15325 5.98647 8.36017 6.07218 8.51274 6.22475C8.6653 6.37732 8.75101 6.58424 8.75101 6.8C8.75101 7.01576 8.6653 7.22268 8.51274 7.37525L3.39886 12.4875H19.3125C19.959 12.4875 20.5789 12.2307 21.0361 11.7736C21.4932 11.3165 21.75 10.6965 21.75 10.05V2.25C21.75 2.03451 21.8356 1.82785 21.988 1.67548C22.1403 1.5231 22.347 1.4375 22.5625 1.4375Z" fill="#131340" stroke="#131340"/>
</svg>
