<svg width="22" height="17" viewBox="0 0 22 17" fill="none" xmlns="http://www.w3.org/2000/svg">
<path d="M0 8.5C0 8.5 4.125 0.9375 11 0.9375C17.875 0.9375 22 8.5 22 8.5C22 8.5 17.875 16.0625 11 16.0625C4.125 16.0625 0 8.5 0 8.5ZM11 13.3125C12.2764 13.3125 13.5004 12.8055 14.403 11.903C15.3055 11.0004 15.8125 9.77635 15.8125 8.5C15.8125 7.22365 15.3055 5.99957 14.403 5.09705C13.5004 4.19453 12.2764 3.6875 11 3.6875C9.72365 3.6875 8.49957 4.19453 7.59705 5.09705C6.69453 5.99957 6.1875 7.22365 6.1875 8.5C6.1875 9.77635 6.69453 11.0004 7.59705 11.903C8.49957 12.8055 9.72365 13.3125 11 13.3125Z" fill="#0ED28C"/>
</svg>
