<svg width="20" height="20" viewBox="0 0 20 20" fill="none" xmlns="http://www.w3.org/2000/svg">
<path d="M11.2781 0.430209C11.1816 0.33329 11.0668 0.256428 10.9404 0.204047C10.814 0.151667 10.6785 0.124803 10.5417 0.125001H1.16667C0.8904 0.125001 0.625447 0.234748 0.430097 0.430098C0.234747 0.625449 0.125 0.890401 0.125 1.16667V10.5417C0.125 10.8188 0.234375 11.0833 0.430208 11.2781L8.76354 19.6115C8.86006 19.7085 8.97481 19.7856 9.1012 19.8381C9.22758 19.8907 9.36312 19.9177 9.5 19.9177C9.63688 19.9177 9.77242 19.8907 9.89881 19.8381C10.0252 19.7856 10.1399 19.7085 10.2365 19.6115L19.6115 10.2365C19.7083 10.1398 19.7851 10.025 19.8375 9.89864C19.8899 9.77227 19.9169 9.63681 19.9169 9.5C19.9169 9.36319 19.8899 9.22773 19.8375 9.10136C19.7851 8.97499 19.7083 8.8602 19.6115 8.76354L11.2781 0.430209ZM9.5 17.4021L2.20833 10.1104V2.20833H10.1104L17.4021 9.5L9.5 17.4021Z" fill="#0ED28C"/>
</svg>
