<svg width="41" height="39" viewBox="0 0 41 39" fill="none" xmlns="http://www.w3.org/2000/svg">
<path d="M10.3734 15.8939C9.78816 16.0396 9.17599 16.117 8.54584 16.117C4.36639 16.117 0.978271 12.7144 0.978271 8.51699C0.978271 4.31963 4.36639 0.916992 8.54584 0.916992C12.5492 0.916992 15.8265 4.03896 16.0956 7.99091L20.7297 11.3757L25.951 8.31685C26.5593 4.73186 29.6677 2.00271 33.4107 2.00271C37.5902 2.00271 40.9783 5.40534 40.9783 9.60271C40.9783 13.8001 37.5902 17.2027 33.4107 17.2027C32.513 17.2027 31.6518 17.0457 30.8528 16.7576L25.3026 20.0091V25.4953C26.955 26.8894 28.0053 28.98 28.0053 31.317C28.0053 35.5144 24.6172 38.917 20.4377 38.917C16.2583 38.917 12.8702 35.5144 12.8702 31.317C12.8702 28.98 13.9205 26.8894 15.5729 25.4953V19.6915L10.3734 15.8939Z" fill="url(#paint0_linear)"/>
<defs>
<linearGradient id="paint0_linear" x1="-0.0143178" y1="-1.41699" x2="36.6096" y2="31.0004" gradientUnits="userSpaceOnUse">
<stop stop-color="#FFE600"/>
<stop offset="1" stop-color="#00FFE0"/>
</linearGradient>
</defs>
</svg>
